<svg width="300" height="45" viewBox="0 0 1318 316" fill="none" xmlns="http://www.w3.org/2000/svg">
<path d="M341.848 206.648V215H293.08V147.8H340.504V156.152H302.68V176.792H336.376V184.952H302.68V206.648H341.848ZM400.208 198.2H364.497L357.105 215H347.216L377.649 147.8H387.153L417.681 215H407.601L400.208 198.2ZM396.849 190.52L382.353 157.592L367.857 190.52H396.849ZM472.633 215L458.137 194.36C456.345 194.488 454.937 194.552 453.913 194.552H437.305V215H427.705V147.8H453.913C462.617 147.8 469.465 149.88 474.457 154.04C479.449 158.2 481.945 163.928 481.945 171.224C481.945 176.408 480.665 180.824 478.105 184.472C475.545 188.12 471.897 190.776 467.161 192.44L483.097 215H472.633ZM453.625 186.392C459.705 186.392 464.345 185.08 467.545 182.456C470.745 179.832 472.345 176.088 472.345 171.224C472.345 166.36 470.745 162.648 467.545 160.088C464.345 157.464 459.705 156.152 453.625 156.152H437.305V186.392H453.625ZM497.455 147.8H507.055V206.648H543.439V215H497.455V147.8ZM573.383 215.768C568.327 215.768 563.431 215 558.695 213.464C554.023 211.864 550.343 209.816 547.655 207.32L551.207 199.832C553.767 202.136 557.031 204.024 560.999 205.496C565.031 206.904 569.159 207.608 573.383 207.608C578.951 207.608 583.111 206.68 585.863 204.824C588.615 202.904 589.991 200.376 589.991 197.24C589.991 194.936 589.223 193.08 587.687 191.672C586.215 190.2 584.359 189.08 582.119 188.312C579.943 187.544 576.839 186.68 572.807 185.72C567.751 184.504 563.655 183.288 560.519 182.072C557.447 180.856 554.791 179 552.551 176.504C550.375 173.944 549.287 170.52 549.287 166.232C549.287 162.648 550.215 159.416 552.071 156.536C553.991 153.656 556.871 151.352 560.711 149.624C564.551 147.896 569.319 147.032 575.015 147.032C578.983 147.032 582.887 147.544 586.727 148.568C590.567 149.592 593.863 151.064 596.615 152.984L593.447 160.664C590.631 158.872 587.623 157.528 584.423 156.632C581.223 155.672 578.087 155.192 575.015 155.192C569.575 155.192 565.479 156.184 562.727 158.168C560.039 160.152 558.695 162.712 558.695 165.848C558.695 168.152 559.463 170.04 560.999 171.512C562.535 172.92 564.423 174.04 566.663 174.872C568.967 175.64 572.071 176.472 575.975 177.368C581.031 178.584 585.095 179.8 588.167 181.016C591.239 182.232 593.863 184.088 596.039 186.584C598.279 189.08 599.399 192.44 599.399 196.664C599.399 200.184 598.439 203.416 596.519 206.36C594.599 209.24 591.687 211.544 587.783 213.272C583.879 214.936 579.079 215.768 573.383 215.768ZM613.424 147.8H641.744C648.848 147.8 655.152 149.208 660.656 152.024C666.16 154.84 670.416 158.808 673.424 163.928C676.496 168.984 678.032 174.808 678.032 181.4C678.032 187.992 676.496 193.848 673.424 198.968C670.416 204.024 666.16 207.96 660.656 210.776C655.152 213.592 648.848 215 641.744 215H613.424V147.8ZM641.168 206.648C646.608 206.648 651.376 205.592 655.472 203.48C659.632 201.368 662.832 198.424 665.072 194.648C667.312 190.808 668.432 186.392 668.432 181.4C668.432 176.408 667.312 172.024 665.072 168.248C662.832 164.408 659.632 161.432 655.472 159.32C651.376 157.208 646.608 156.152 641.168 156.152H623.024V206.648H641.168ZM723.072 215.768C716.288 215.768 710.176 214.296 704.736 211.352C699.296 208.344 695.008 204.216 691.872 198.968C688.8 193.72 687.264 187.864 687.264 181.4C687.264 174.936 688.8 169.08 691.872 163.832C695.008 158.584 699.296 154.488 704.736 151.544C710.176 148.536 716.288 147.032 723.072 147.032C729.792 147.032 735.872 148.536 741.312 151.544C746.752 154.488 751.008 158.584 754.08 163.832C757.152 169.016 758.688 174.872 758.688 181.4C758.688 187.928 757.152 193.816 754.08 199.064C751.008 204.248 746.752 208.344 741.312 211.352C735.872 214.296 729.792 215.768 723.072 215.768ZM723.072 207.224C728 207.224 732.416 206.104 736.32 203.864C740.288 201.624 743.392 198.552 745.632 194.648C747.936 190.68 749.088 186.264 749.088 181.4C749.088 176.536 747.936 172.152 745.632 168.248C743.392 164.28 740.288 161.176 736.32 158.936C732.416 156.696 728 155.576 723.072 155.576C718.144 155.576 713.664 156.696 709.632 158.936C705.664 161.176 702.528 164.28 700.224 168.248C697.984 172.152 696.864 176.536 696.864 181.4C696.864 186.264 697.984 190.68 700.224 194.648C702.528 198.552 705.664 201.624 709.632 203.864C713.664 206.104 718.144 207.224 723.072 207.224ZM831.153 147.8V215H823.281L782.961 164.888V215H773.361V147.8H781.233L821.553 197.912V147.8H831.153Z" fill="#6D3987"/>
<path d="M916.136 212.824V217H879.032V149.08H883.976V212.824H916.136ZM932.539 217H927.595V149.08H932.539V217ZM1019.73 149.08V217H1015.46V159.112C1015.46 158.28 1015.51 157.4 1015.6 156.472L988.866 203.944C988.418 204.776 987.778 205.192 986.946 205.192H986.178C985.346 205.192 984.706 204.776 984.258 203.944L956.802 156.376C956.898 157.336 956.946 158.248 956.946 159.112V217H952.626V149.08H956.034C956.482 149.08 956.834 149.128 957.09 149.224C957.346 149.32 957.602 149.576 957.858 149.992L985.266 197.224C985.746 198.12 986.162 199.08 986.514 200.104C986.706 199.592 986.914 199.096 987.138 198.616C987.362 198.104 987.602 197.624 987.858 197.176L1014.5 149.992C1014.75 149.576 1015.01 149.32 1015.27 149.224C1015.55 149.128 1015.92 149.08 1016.37 149.08H1019.73ZM1044.76 217H1039.81V149.08H1044.76V217ZM1109 153.256H1085.15V217H1080.2V153.256H1056.2V149.08H1109V153.256ZM1161.24 212.92L1161.14 217H1120.44V149.08H1161.14V153.16H1125.38V180.616H1155.14V184.6H1125.38V212.92H1161.24ZM1233.34 183.016C1233.34 188.264 1232.56 192.984 1230.99 197.176C1229.42 201.368 1227.21 204.936 1224.37 207.88C1221.52 210.824 1218.09 213.08 1214.09 214.648C1210.13 216.216 1205.74 217 1200.94 217H1176.13V149.08H1200.94C1205.74 149.08 1210.13 149.864 1214.09 151.432C1218.09 153 1221.52 155.256 1224.37 158.2C1227.21 161.144 1229.42 164.712 1230.99 168.904C1232.56 173.096 1233.34 177.8 1233.34 183.016ZM1228.25 183.016C1228.25 178.28 1227.6 174.056 1226.29 170.344C1224.97 166.632 1223.12 163.496 1220.72 160.936C1218.32 158.376 1215.44 156.424 1212.08 155.08C1208.72 153.736 1205.01 153.064 1200.94 153.064H1181.07V213.016H1200.94C1205.01 213.016 1208.72 212.344 1212.08 211C1215.44 209.656 1218.32 207.704 1220.72 205.144C1223.12 202.584 1224.97 199.448 1226.29 195.736C1227.6 192.024 1228.25 187.784 1228.25 183.016Z" fill="#6A9E9A"/>
<path d="M79 132L135 78V239H79V132Z" fill="#6D3987"/>
<path d="M143 132L199 78V239H143V132Z" fill="#D4954F"/>
<path d="M207 132L263 78V239H207V132Z" fill="#6A9E9A"/>
<rect x="97" y="204" width="20" height="20" fill="white"/>
<rect x="161" y="149" width="20" height="20" fill="white"/>
<rect x="225" y="190" width="20" height="20" fill="white"/>
</svg>